<?xml version="1.0" encoding="utf-8"?>
<?xml-stylesheet type="text/xsl" href="rss1.xsl"?>
<rss version="2.0" xmlns:atom="http://www.w3.org/2005/Atom" xmlns:content="http://purl.org/rss/1.0/modules/content/" xmlns:dc="http://purl.org/dc/elements/1.1/" xmlns:media="http://search.yahoo.com/mrss/">
<channel>
 <title>Getty</title>
 <link>http://www.gettyimg.com/</link>
 <atom:link href="http://www.gettyimg.com/" rel="self" type="application/rss+xml" />

 
                <item>
                <title><![CDATA[【Music Videos】Taleesa - Let Me Be (Club Mix) (Video Edit VJ-RoGeRs)]]></title>
                <link><![CDATA[https://sharemania.us/threads/taleesa-let-me-be-club-mix-video-edit-vj-rogers.246408/]]></link>
                <description><![CDATA[<article>
<blockquote class="messageText SelectQuoteContainer ugc baseHtml">
<img src="https://i.ibb.co/z4KS48k/Taleesa-Let-Me-Be-Club-Mix-Video-Edit-VJ-Ro-Ge-Rs-mp4-thumbs-2024-06-07-18-46-34.jpg" class="bbCodeImage LbImage" alt="[​IMG]" data-url="https://i.ibb.co/z4KS48k/Taleesa-Let-Me-Be-Club-Mix-Video-Edit-VJ-Ro-Ge-Rs-mp4-thumbs-2024-06-07-18-46-34.jpg" style=""> <br>
<br>
<div class="ToggleTriggerAnchor bbCodeSpoilerContainer">
<button type="button" class="button bbCodeSpoilerButton ToggleTrigger Tooltip JsOnly" data-target="> .SpoilerTarget"><span>Spoiler: <span class="SpoilerTitle">MediaInfo</span></span></button>
<div class="SpoilerTarget bbCodeSpoilerText">Taleesa - Let Me Be (Club Mix) (Video Edit VJ-RoGeRs).mp4<br>
Format : MPEG-4<br>
Format profile : Base Media / Version 2<br>
Codec ID : mp42 (mp42/mp41)<br>
File size : 407 MiB<br>
Duration : 5 min 30 s<br>
Overall bit rate mode : Variable<br>
Overall bit rate : 10.3 Mb/s<br>
Frame rate : 30.000 FPS<br>
Encoded date : 2024-06-07 22:22:46 UTC<br>
Tagged date : 2024-06-07 22:23:31 UTC<br>
TIM : 00:00:00:00<br>
TSC : 30<br>
TSZ : 1<br>
<br>
Video<br>
ID : 1<br>
Format : AVC<br>
Format/Info : Advanced Video Codec<br>
Format profile : High@L3.1<br>
Format settings : CABAC / 4 Ref Frames<br>
Format settings, CABAC : Yes<br>
Format settings, Reference : 4 frames<br>
Codec ID : avc1<br>
Codec ID/Info : Advanced Video Coding<br>
Duration : 5 min 30 s<br>
Bit rate : 9 999 kb/s<br>
Width : 720 pixels<br>
Height : 480 pixels<br>
Display aspect ratio : 4:3<br>
Original display aspect rat : 4:3<br>
Frame rate mode : Constant<br>
Frame rate : 30.000 FPS<br>
Standard : NTSC<br>
Color space : YUV<br>
Chroma subsampling : 4:2:0<br>
Bit depth : 8 bits<br>
Scan type : Interlaced<br>
Scan type, store method : Separated fields<br>
Scan order : Bottom Field First<br>
Bits/(Pixel*Frame) : 0.964<br>
Stream size : 394 MiB (97%)<br>
Language : English<br>
Encoded date : 2024-06-07 22:22:46 UTC<br>
Tagged date : 2024-06-07 22:22:46 UTC<br>
Color range : Limited<br>
Color primaries : BT.601 NTSC<br>
Transfer characteristics : BT.601<br>
Matrix coefficients : BT.601<br>
Codec configuration box : avcC<br>
<br>
Audio<br>
ID : 2<br>
Format : AAC LC<br>
Format/Info : Advanced Audio Codec Low Complexity<br>
Codec ID : mp4a-40-2<br>
Duration : 5 min 30 s<br>
Source duration : 5 min 30 s<br>
Bit rate mode : Variable<br>
Bit rate : 317 kb/s<br>
Maximum bit rate : 482 kb/s<br>
Channel(s) : 2 channels<br>
Channel layout : L R<br>
Sampling rate : 48.0 kHz<br>
Frame rate : 46.875 FPS (1024 SPF)<br>
Compression mode : Lossy<br>
Stream size : 12.5 MiB (3%)<br>
Source stream size : 12.5 MiB (3%)<br>
Language : English<br>
Encoded date : 2024-06-07 22:22:46 UTC<br>
Tagged date : 2024-06-07 22:22:46 UTC</div>
</div><br>
<div class="bbCodeBlock bbCodeVfcHH HiddenContent">
<div class="attribution type">Hidden Content:</div>
<blockquote>You must reply before you can see the hidden data contained here.</blockquote>
</div>
<div class="messageTextEndMarker">&nbsp;</div>
</blockquote>
</article>]]></description>
                <author><![CDATA[DJ-RoGeRs-BS]]></author>
                </item>

                
                <item>
                <title><![CDATA[【Singles (lossy)】MP3 - Destiny's Child (1997-1998 Rare Singles)]]></title>
                <link><![CDATA[https://sharemania.us/threads/destinys-child-1997-1998-rare-singles.246409/]]></link>
                <description><![CDATA[<article>
<blockquote class="messageText SelectQuoteContainer ugc baseHtml">
<img src="https://i.imgur.com/0ydDzL0.jpg" class="bbCodeImage LbImage" alt="[​IMG]" data-url="https://i.imgur.com/0ydDzL0.jpg" style=""><br>
Killing Time (Radio Edit)<br>
<div class="bbCodeBlock bbCodeVfcHH HiddenContent">
<div class="attribution type">Hidden Content:</div>
<blockquote>You must either reply or click 'Like' to see the hidden information contained here.</blockquote>
</div><br>
<img src="https://i.imgur.com/XwDmrJf.jpg" class="bbCodeImage LbImage" alt="[​IMG]" data-url="https://i.imgur.com/XwDmrJf.jpg" style=""><br>
No, No, No, Pt. 2 (Without Rap)<br>
<div class="bbCodeBlock bbCodeVfcHH HiddenContent">
<div class="attribution type">Hidden Content:</div>
<blockquote>You must either reply or click 'Like' to see the hidden information contained here.</blockquote>
</div><br>
<img src="https://i.imgur.com/WfMuuYt.jpg" class="bbCodeImage LbImage" alt="[​IMG]" data-url="https://i.imgur.com/WfMuuYt.jpg" style=""><br>
With Me, Pt. 2 (Without Rap)<br>
<div class="bbCodeBlock bbCodeVfcHH HiddenContent">
<div class="attribution type">Hidden Content:</div>
<blockquote>You must either reply or click 'Like' to see the hidden information contained here.</blockquote>
</div><br>
<img src="https://i.imgur.com/i3pQiD0.jpg" class="bbCodeImage LbImage" alt="[​IMG]" data-url="https://i.imgur.com/i3pQiD0.jpg" style=""><br>
With Me (Full Crew Mixes)<br>
01 With Me (Full Crew Main Mix)<br>
02 With Me (Full Crew Main Mix Without Rap)<br>
03 With Me (Full Crew Radio Version)<br>
04 With Me (Full Crew Revocaled Radio Version)<br>
<div class="bbCodeBlock bbCodeVfcHH HiddenContent">
<div class="attribution type">Hidden Content:</div>
<blockquote>You must either reply or click 'Like' to see the hidden information contained here.</blockquote>
</div>
<div class="messageTextEndMarker">&nbsp;</div>
</blockquote>
</article>]]></description>
                <author><![CDATA[Behaviorbaby]]></author>
                </item>

                </channel></rss>